<?xml version="1.0" encoding="utf-8"?>
<!-- Generator: Adobe Illustrator 18.1.1, SVG Export Plug-In . SVG Version: 6.00 Build 0)  -->
<svg version="1.1" id="Layer_1" xmlns="http://www.w3.org/2000/svg" xmlns:xlink="http://www.w3.org/1999/xlink" x="0px" y="0px"
	 viewBox="144 141 68 71" enable-background="new 144 141 68 71" xml:space="preserve">
<path fill="#93DB70" d="M197.3,147.9h-38.2c-5.8,0-10.5,4.7-10.5,10.5v38.2c0,5.8,4.7,10.5,10.5,10.5h38.2c5.8,0,10.5-4.7,10.5-10.5
	v-38.2C207.8,152.5,203.1,147.9,197.3,147.9z M189.5,178c0,0.5-0.2,0.4-0.6,0.4c-2.6,0-5.3,0-8,0c-0.5,0-0.5,0.1-0.5,0.6
	c0,3.9,0,7.6,0,11.5s0,7.6,0,11.5c0,0.5-0.1,0.6-0.6,0.6c-2.7,0-5.4,0-8.2,0c-0.5,0-0.6-0.2-0.6-0.6c0-7.6,0-15.2,0-22.8
	c0-0.6-0.1-0.8-0.7-0.8c-1.7,0.1-3.5,0-5.1,0c-0.4,0-0.5-0.1-0.5-0.5c0-2.6,0-5.2,0-7.8c0-0.4,0.1-0.5,0.5-0.5c1.8,0,3.6,0,5.3,0
	c0.5,0,0.6-0.1,0.6-0.6c0-2.4-0.1-4.9,0-7.3c0.2-5.7,3.9-9.6,9.4-10.5c2.9-0.4,5.9-0.2,8.8,0c0.4,0,0.5,0.2,0.4,0.6
	c-0.1,2.4-0.1,4.8-0.2,7.2c0,0.4-0.1,0.5-0.5,0.4c-1.6,0-3.2,0-4.8,0c-0.1,0-0.3,0-0.4,0c-2.5,0-3.5,0.9-3.5,3.5c0,2,0,4.1,0,6.1
	c0,0.5,0.1,0.6,0.6,0.6c2.7,0,5.4,0,8.2,0c0.5,0,0.7,0.1,0.6,0.6C189.7,172.9,189.6,175.5,189.5,178z"/>
</svg>
