<?xml version="1.0" encoding="utf-8"?>
<!-- Generator: Adobe Illustrator 18.1.1, SVG Export Plug-In . SVG Version: 6.00 Build 0)  -->
<svg version="1.1" id="Layer_1" xmlns="http://www.w3.org/2000/svg" xmlns:xlink="http://www.w3.org/1999/xlink" x="0px" y="0px"
	 viewBox="0 0 792 792" enable-background="new 0 0 792 792" xml:space="preserve">
<path fill="#FFFFFF" d="M609.1,65.8H182.9c-64.7,0-117.1,52.4-117.1,117.1v426.1c0,64.7,52.4,117.1,117.1,117.1h426.1
	c64.7,0,117.1-52.4,117.1-117.1V182.9C726.2,117.1,673.8,65.8,609.1,65.8z M522.1,401.6c0,5.6-2.2,4.5-6.7,4.5c-29,0-59.1,0-89.2,0
	c-5.6,0-5.6,1.1-5.6,6.7c0,43.5,0,84.8,0,128.3s0,84.8,0,128.3c0,5.6-1.1,6.7-6.7,6.7c-30.1,0-60.2,0-91.5,0c-5.6,0-6.7-2.2-6.7-6.7
	c0-84.8,0-169.6,0-254.3c0-6.7-1.1-8.9-7.8-8.9c-19,1.1-39,0-56.9,0c-4.5,0-5.6-1.1-5.6-5.6c0-29,0-58,0-87c0-4.5,1.1-5.6,5.6-5.6
	c20.1,0,40.2,0,59.1,0c5.6,0,6.7-1.1,6.7-6.7c0-26.8-1.1-54.7,0-81.4c2.2-63.6,43.5-107.1,104.9-117.1c32.3-4.5,65.8-2.2,98.2,0
	c4.5,0,5.6,2.2,4.5,6.7c-1.1,26.8-1.1,53.5-2.2,80.3c0,4.5-1.1,5.6-5.6,4.5c-17.8,0-35.7,0-53.5,0c-1.1,0-3.3,0-4.5,0
	c-27.9,0-39,10-39,39c0,22.3,0,45.7,0,68c0,5.6,1.1,6.7,6.7,6.7c30.1,0,60.2,0,91.5,0c5.6,0,7.8,1.1,6.7,6.7
	C524.3,344.7,523.2,373.7,522.1,401.6z"/>
</svg>
