<?xml version="1.0" encoding="utf-8"?>
<!-- Generator: Adobe Illustrator 18.1.1, SVG Export Plug-In . SVG Version: 6.00 Build 0)  -->
<svg version="1.1" id="Layer_1" xmlns="http://www.w3.org/2000/svg" xmlns:xlink="http://www.w3.org/1999/xlink" x="0px" y="0px"
	 viewBox="144 141 68 71" enable-background="new 144 141 68 71" xml:space="preserve">
<g>
	<path fill="#93DB70" d="M197.8,172.5c-1.1,0-2.2,0-3.4,0c-0.4,0-0.6,0.1-0.4,0.5c0.7,2.1,0.8,4.3,0.3,6.3
		c-1.2,5.7-4.8,9.5-10.8,11.3c-5.8,1.7-11.2,0.4-15.6-3.5c-4.3-3.8-5.5-8.6-4.2-14c0.1-0.5,0.1-0.6-0.4-0.6c-1,0-1.9,0-2.9,0
		c-0.6,0-0.7,0.1-0.7,0.6c0,6.4,0,12.9,0,19.3c0,1.7,1,2.6,2.8,2.6c5.5,0,11,0,16.5,0s11.1,0,16.6,0c1.6,0,2.6-0.9,2.6-2.4
		c0-6.5,0-13.2,0-19.7C198.4,172.6,198.3,172.5,197.8,172.5z"/>
	<path fill="#93DB70" d="M178.9,186.4c5.7,0,10.3-4.3,10.3-9.4c0-5.2-4.6-9.5-10.2-9.5c-5.7,0-10.3,4.3-10.3,9.4
		C168.6,182,173.2,186.3,178.9,186.4z"/>
	<path fill="#93DB70" d="M191.9,167.3c1.3,0,2.6,0,3.9,0c1.5,0,2.6-1,2.6-2.4c0-1.2,0-2.6,0-3.8c0-1.3-1.1-2.3-2.5-2.4
		c-0.8,0-1.5,0-2.2,0l0,0c-0.7,0-1.2,0-1.9,0c-1.5,0-2.4,0.9-2.4,2.2s0,2.6,0,3.9C189.3,166.2,190.4,167.3,191.9,167.3z"/>
	<path fill="#93DB70" d="M199.5,147.6h-41c-6.2,0-11.2,4.7-11.2,10.4v37.9c0,5.7,5.1,10.4,11.2,10.4h41c6.2,0,11.2-4.7,11.2-10.4
		V158C210.7,152.1,205.7,147.6,199.5,147.6z M204.1,194.1c0,3.6-2.7,6.1-6.6,6.1c-6.2,0-12.4,0-18.6,0c-6.2,0-12.4,0-18.4,0
		c-3.8,0-6.6-2.5-6.6-6.1c0-11.5,0-23,0-34.6c0-3.6,2.7-6.1,6.6-6.1c12.4,0,24.7,0,37.1,0c3.8,0,6.6,2.5,6.6,6.1
		C204.1,171,204.1,182.6,204.1,194.1z"/>
</g>
</svg>
