<?xml version="1.0" encoding="utf-8"?>
<!-- Generator: Adobe Illustrator 18.1.1, SVG Export Plug-In . SVG Version: 6.00 Build 0)  -->
<svg version="1.1" id="Layer_1" xmlns="http://www.w3.org/2000/svg" xmlns:xlink="http://www.w3.org/1999/xlink" x="0px" y="0px"
	 viewBox="0 0 792 792" enable-background="new 0 0 792 792" xml:space="preserve">
<g>
	<path fill="#FFFFFF" d="M605.7,346.4c-12.3,0-24.5,0-37.9,0c-4.5,0-6.7,1.1-4.5,5.6c7.8,23.4,8.9,48,3.3,70.3
		c-13.4,63.6-53.5,106-120.5,126.1c-64.7,19-124.9,4.5-174-39c-48-42.4-61.4-95.9-46.9-156.2c1.1-5.6,1.1-6.7-4.5-6.7
		c-11.2,0-21.2,0-32.3,0c-6.7,0-7.8,1.1-7.8,6.7c0,71.4,0,143.9,0,215.3c0,19,11.2,29,31.2,29c61.4,0,122.7,0,184.1,0
		s123.8,0,185.2,0c17.8,0,29-10,29-26.8c0-72.5,0-147.2,0-219.8C612.4,347.5,611.3,346.4,605.7,346.4z"/>
	<path fill="#FFFFFF" d="M394.9,501.4c63.6,0,114.9-48,114.9-104.9c0-58-51.3-106-113.8-106c-63.6,0-114.9,48-114.9,104.9
		C280,452.3,331.3,500.3,394.9,501.4z"/>
	<path fill="#FFFFFF" d="M539.9,288.4c14.5,0,29,0,43.5,0c16.7,0,29-11.2,29-26.8c0-13.4,0-29,0-42.4c0-14.5-12.3-25.7-27.9-26.8
		c-8.9,0-16.7,0-24.5,0l0,0c-7.8,0-13.4,0-21.2,0c-16.7,0-26.8,10-26.8,24.5c0,14.5,0,29,0,43.5
		C510.9,276.1,523.2,288.4,539.9,288.4z"/>
	<path fill="#FFFFFF" d="M624.7,68.6H167.3c-69.2,0-124.9,52.4-124.9,116v422.8c0,63.6,56.9,116,124.9,116h457.4
		c69.2,0,124.9-52.4,124.9-116V184.6C749.6,118.8,693.8,68.6,624.7,68.6z M676,587.3c0,40.2-30.1,68-73.6,68
		c-69.2,0-138.3,0-207.5,0c-69.2,0-138.3,0-205.3,0c-42.4,0-73.6-27.9-73.6-68c0-128.3,0-256.6,0-386c0-40.2,30.1-68,73.6-68
		c138.3,0,275.5,0,413.8,0c42.4,0,73.6,27.9,73.6,68C676,329.6,676,459,676,587.3z"/>
</g>
</svg>
