<?xml version="1.0" encoding="utf-8"?>
<!-- Generator: Adobe Illustrator 18.1.1, SVG Export Plug-In . SVG Version: 6.00 Build 0)  -->
<svg version="1.1" id="Layer_1" xmlns="http://www.w3.org/2000/svg" xmlns:xlink="http://www.w3.org/1999/xlink" x="0px" y="0px"
	 viewBox="0 0 792 792" enable-background="new 0 0 792 792" xml:space="preserve">
<path fill="#FFFFFF" d="M617.1,67.5h-425c-63.6,0-116,52.4-116,116v425c0,63.6,52.4,116,116,116h425c63.6,0,116-52.4,116-116v-425
	C733.1,118.8,680.6,67.5,617.1,67.5z M711.9,204.7c-2.2,6.7-6.7,11.2-11.2,16.7c-7.8,10-17.8,21.2-27.9,30.1
	c-5.6,5.6-12.3,11.2-20.1,16.7c-2.2,1.1-2.2,3.3-2.2,5.6c0,5.6,0,10,0,16.7c0,19-2.2,37.9-4.5,56.9c-3.3,19-7.8,37.9-14.5,55.8
	c-4.5,14.5-10,26.8-16.7,40.2c-8.9,19-20.1,36.8-31.2,54.7c-7.8,11.2-17.8,23.4-26.8,33.5c-4.5,5.6-8.9,10-15.6,15.6
	c-22.3,21.2-45.7,40.2-72.5,54.7c-21.2,11.2-42.4,21.2-63.6,27.9c-20.1,5.6-40.2,10-59.1,14.5c-8.9,1.1-19,2.2-29,2.2
	c-3.3,0-6.7,0-10,0c-1.1,0-2.2,0-3.3,0s-3.3,0-4.5,0c-6.7,0-12.3,0-20.1,0c-1.1,0-3.3,0-4.5,0c-1.1,0-2.2,0-3.3,0
	c-22.3,0-44.6-3.3-64.7-7.8c-31.2-6.7-60.2-19-88.1-33.5c-6.7-3.3-14.5-7.8-21.2-11.2c-1.1-1.1-3.3-2.2-1.1-3.3c3.3-1.1,6.7,0,10,0
	c8.9,0,19,1.1,27.9,0c6.7,0,15.6-1.1,22.3-2.2c14.5-1.1,27.9-4.5,41.3-7.8c14.5-4.5,27.9-8.9,42.4-16.7
	c12.3-6.7,25.7-15.6,37.9-24.5c-5.6-1.1-11.2-1.1-17.8-2.2c-10-2.2-20.1-4.5-29-8.9c-16.7-6.7-30.1-17.8-43.5-31.2
	c-11.2-12.3-20.1-26.8-25.7-43.5c-1.1-3.3,0-4.5,3.3-4.5c6.7,1.1,14.5,2.2,21.2,2.2c7.8,0,16.7-1.1,24.5-2.2h1.1
	c-4.5-1.1-8.9-2.2-14.5-4.5c-4.5-1.1-8.9-3.3-12.3-5.6c-4.5-2.2-7.8-4.5-12.3-6.7c-3.3-2.2-7.8-5.6-11.2-7.8
	c-11.2-11.2-24.5-27.9-32.3-48c-4.5-12.3-7.8-25.7-8.9-37.9c0-3.3,0-5.6,0-8.9c0-3.3,1.1-4.5,4.5-2.2c5.6,2.2,10,4.5,16.7,6.7
	c7.8,3.3,17.8,4.5,26.8,5.6c1.1,0,3.3,1.1,5.6,0c-2.2-2.2-4.5-3.3-6.7-5.6c-12.3-11.2-24.5-24.5-32.3-41.3
	c-6.7-14.5-10-27.9-12.3-43.5c-2.2-26.8,2.2-51.3,15.6-75.9c2.2-3.3,3.3-3.3,6.7,0c5.6,5.6,10,11.2,16.7,19
	c14.5,15.6,30.1,29,46.9,41.3c15.6,11.2,31.2,21.2,48,29c17.8,8.9,35.7,16.7,54.7,23.4c21.2,6.7,43.5,11.2,64.7,15.6
	c6.7,1.1,14.5,2.2,22.3,2.2c3.3,0,3.3,0,3.3-3.3c-3.3-21.2-2.2-41.3,3.3-60.2c4.5-15.6,11.2-29,21.2-41.3
	c19-24.5,43.5-40.2,73.6-46.9c4.5-1.1,8.9-1.1,15.6-1.1c1.1,0,1.1,0,2.2,0c1.1,0,2.2,0,2.2,0c1.1,0,2.2,0,2.2,0c5.6,0,11.2,0,17.8,0
	c3.3,1.1,6.7,0,11.2,1.1c6.7,1.1,14.5,3.3,21.2,5.6c15.6,5.6,27.9,14.5,41.3,24.5c2.2,2.2,4.5,4.5,6.7,6.7c1.1,1.1,2.2,2.2,4.5,1.1
	c23.4-4.5,45.7-12.3,66.9-24.5c2.2-1.1,4.5-2.2,6.7-3.3c1.1-1.1,2.2-1.1,3.3-1.1c1.1,1.1,1.1,2.2,0,4.5c-3.3,8.9-6.7,17.8-12.3,25.7
	c-5.6,8.9-12.3,19-22.3,25.7c-4.5,4.5-10,8.9-16.7,12.3l0,0c4.5-1.1,8.9-1.1,14.5-2.2c16.7-3.3,32.3-7.8,49.1-15.6
	C709.6,203.6,710.8,203.6,711.9,204.7L711.9,204.7z"/>
</svg>
